<svg height="16" viewBox="0 0 16 16" width="16" xmlns="http://www.w3.org/2000/svg"><path d="m13 16h-10c-1.657 0-3-1.344-3-3v-10c0-1.65685425 1.34314575-3 3-3h10c1.6568542 0 3 1.34314575 3 3v10c0 1.656-1.343 3-3 3zm1-13c0-.55228475-.4477153-1-1-1h-10c-.55228475 0-1 .44771525-1 1v10c0 .553.447 1 1 1h10c.553 0 1-.447 1-1zm-3 6h-2v2c0 .553-.447 1-1 1s-1-.447-1-1v-2h-2c-.55228475 0-1-.44771525-1-1s.44771525-1 1-1h2v-2c0-.55228475.44771525-1 1-1s1 .44771525 1 1v2h2c.5522847 0 1 .44771525 1 1s-.4477153 1-1 1z" fill="#3d4349" transform=""/></svg>