<svg height="32" viewBox="0 0 32 32" width="32" xmlns="http://www.w3.org/2000/svg">
    <path d="m24 8h-10c-.5522847 0-1 .44771525-1 1v3h-5c-.55228475 0-1 .4477153-1 1v10c0 .5522847.44771525 1 1 1h10c.5522847 0 1-.4477153 1-1v-3h5c.5522847 0 1-.4477153 1-1v-10c0-.55228475-.4477153-1-1-1zm-7 7v6.5c0 .2761424-.2238576.5-.5.5h-7c-.27614237 0-.5-.2238576-.5-.5v-7c0-.2761424.22385763-.5.5-.5h7c.2761424 0 .5.2238576.5.5zm6-4v6.5c0 .2761424-.2238576.5-.5.5h-3.5v-5c0-.5522847-.4477153-1-1-1h-3v-1.5c0-.2761424.2238576-.5.5-.5h7c.2761424 0 .5.2238576.5.5z"
          fill="#3d4349"/>
</svg>