<svg height="32" viewBox="0 0 32 32" width="32" xmlns="http://www.w3.org/2000/svg">
    <path d="m.05134788 15.6097561h.52888319l.98587933-1.6020539c1.05263158-1.6790758 2.3055199-3.224647 3.89216945-3.9332478 1.25288831-.55969188 2.39794608-.97047494 4.45186136-1.02695761v4.09756101l9.85879329-6.57252892-9.85879329-6.57252888v4.12323492c-3.23491656.14377407-5.55070604 1.06290115-7.35815148 2.88575096-2.68549422 2.70603338-2.50064185 6.11039792-2.50064185 6.96790762.00513479.4569961 0 1.114249 0 1.6328626zm10.68035942-10.68035944v-3.32220796l7.6046213 4.97047497-7.6046213 4.96534023v-3.3273428c-4.67265724 0-7.42490371 1.2631579-9.86906288 5.4120668 0 0-.45186136-8.69833124 9.86906288-8.69833124z"
          fill="#3d4349" transform="translate(6 7)"/>
</svg>