<svg height="32" viewBox="0 0 32 32" width="32" xmlns="http://www.w3.org/2000/svg">
    <g fill="none" transform="translate(8 8)">
        <path d="m14 2.69480069v-.69480069c0-.4.2666667-.66666667.6666667-.66666667s.6666666.26666667.6666666.66666667v2.66666667c0 .4-.2666666.66666666-.6666666.66666666h-2.6666667c-.4 0-.6666667-.26666666-.6666667-.66666666s.2666667-.66666667.6666667-.66666667h1.3451554c-1.2267408-1.64454811-3.2558858-2.66666667-5.3451554-2.66666667-3.66666667 0-6.66666667 3-6.66666667 6.66666667 0 3.6666667 3 6.6666667 6.66666667 6.6666667 3.6666667 0 6.6666667-3 6.6666667-6.6666667 0-.4.2666666-.66666667.6666666-.66666667s.6666667.26666667.6666667.66666667c0 4.4-3.6 8-8 8s-8-3.6-8-8 3.6-8 8-8c2.3084526 0 4.4670284.99917876 6 2.69480069z"
              fill="#057bff"/>
        <path d="m8 10.6666667c-1.46666667 0-2.66666667-1.20000003-2.66666667-2.6666667s1.2-2.66666667 2.66666667-2.66666667 2.6666667 1.2 2.6666667 2.66666667-1.20000003 2.6666667-2.6666667 2.6666667zm0-4.00000003c-.73333333 0-1.33333333.6-1.33333333 1.33333333s.6 1.33333333 1.33333333 1.33333333 1.33333333-.6 1.33333333-1.33333333-.6-1.33333333-1.33333333-1.33333333z"
              fill="#3d4349"/>
    </g>
</svg>