<svg height="32" viewBox="0 0 32 32" width="32" xmlns="http://www.w3.org/2000/svg">
    <path d="m24.5047596 24.5047596c-.316901.3170871-.7468227.4952404-1.1951199.4952404-.4482973 0-.878219-.1781533-1.19512-.4952404l-2.9830102-2.9830103c-1.2272377.7854772-2.6776095 1.2554112-4.2429293 1.2554112-4.3567501 0-7.8885802-3.5318301-7.8885802-7.8885803 0-4.3567501 3.5318301-7.8885802 7.8885802-7.8885802 4.3567502 0 7.8885803 3.5318301 7.8885803 7.8885802 0 1.5653198-.469934 3.0156916-1.2554112 4.2429293l2.9830103 2.9830102c.3170871.316901.4952404.7468227.4952404 1.19512 0 .4482972-.1781533.8782189-.4952404 1.1951199zm-9.6161794-15.25087953c-3.1114814 0-5.63470013 2.52209183-5.63470013 5.63470013 0 3.1126084 2.52321873 5.6347002 5.63470013 5.6347002 3.1126084 0 5.6347002-2.5220918 5.6347002-5.6347002 0-3.1126083-2.5220918-5.63470013-5.6347002-5.63470013z"
          fill="#3d4349"/>
</svg>