<svg height="32" viewBox="0 0 32 32" width="32" xmlns="http://www.w3.org/2000/svg">
    <g fill="none" fill-rule="nonzero">
        <path d="m14.07775 18.361-2.142-6.4245 6.426 2.14125z" fill="#fff"/>
        <path d="m13.743625 12.506375-4.631375-4.631375 2.881375-2.881375c.2150706-.21405548.3036037-.52441201.2338358-.81972124-.069768-.29530924-.2878338-.53323062-.5759608-.62840376l-10.5-3.5c-.3142503-.10466143-.66066109-.02291081-.89496221.21120509-.23430112.2341159-.31632567.58046194-.21191279.89479491l3.5 10.5c.11997743.3568017.45394303.5975103.830375.5985.22925 0 .45325-.091.618625-.256375l2.881375-2.881375 4.631375 4.6305zm-8.98625-2.751875-2.499-7.49525 7.497 2.498125z"
              fill="#0369d9" transform="translate(9 9)"/>
    </g>
</svg>