  <svg height="32" viewBox="0 0 32 32" width="32" xmlns="http://www.w3.org/2000/svg">
                        <path d="m9.60166839 8c-.87825324 0-1.60166839.72172694-1.60166839 1.59791939 0 .68308541.44114241 1.26735481 1.05109489 1.49388821v9.814304c-.60995248.2265339-1.05109489.812884-1.05109489 1.495969 0 .8761925.72341515 1.5979194 1.60166839 1.5979194.68998801 0 1.27842741-.449417 1.50156411-1.0652796h9.7935349c.223137.6158626.8115761 1.0652796 1.5015642 1.0652796.8782535 0 1.6016684-.7217269 1.6016684-1.5979194 0-.6890612-.449505-1.2780362-1.0677789-1.50013v-9.7851755c.6182739-.222093 1.0677789-.8089877 1.0677789-1.49804942 0-.8761925-.7234149-1.59791944-1.6016684-1.59791944-.6906822 0-1.2789515.44845417-1.5015642 1.06527964h-9.7872783c-.2167477-.62736691-.8095415-1.08608588-1.50782071-1.08608588zm0 1.06527961c.30118275 0 .53388951.2321244.53388951.53263978 0 .30040885-.23270676.53263981-.53388951.53263981s-.53388943-.23223096-.53388945-.53263981c0-.30051538.2327067-.53263978.53388945-.53263978zm12.79666321.02080627c.3011831 0 .5338895.23212443.5338895.5326398 0 .30051538-.2327064.53263982-.5338895.53263982s-.5338895-.23212444-.5338895-.53263982c0-.30051537.2327064-.5326398.5338895-.5326398zm-11.3013555 1.06527962h9.7997913c.1624776.4484423.5179294.8038544.9676747.9654096v9.7851755c-.4503667.1617787-.8055175.5181787-.9676747.9674902h-9.7935349c-.164158-.4548552-.5261864-.8148974-.9843587-.9737316v-9.7934985c.4507138-.1562491.8101614-.5063914.9781023-.9508452zm1.1637122 2.1388817-.0062566 2.6278284h1.067779l.004171-1.5604682h2.1438999l-.0125131 5.3750327-1.0698644-.004161-.0041709 1.0652796 3.2158498.0104025.004171-1.0652796-1.0782065-.004161.0125131-5.3771132h2.1209593l-.0020855 1.5583875h1.0677791l.0062561-2.6257477zm-2.65901991 9.5791936c.30118275 0 .53388951.2321244.53388951.5326398s-.23270676.5326398-.53388951.5326398-.53388943-.2321244-.53388945-.5326398c0-.3005154.2327067-.5326398.53388945-.5326398zm12.79666321 0c.3011831 0 .5338895.2321244.5338895.5326398s-.2327064.5326398-.5338895.5326398-.5338895-.2321244-.5338895-.5326398.2327064-.5326398.5338895-.5326398z"
                            fill="#3d4349" />
                    </svg>