<svg height="32" viewBox="0 0 32 32" width="32" xmlns="http://www.w3.org/2000/svg">
    <path d="m19.9947917 14.1770833c0-.875.1875-4.32812497-2.5364584-7.0677083-1.8333333-1.84375-4.1822916-2.78125-7.46354163-2.92708333v-4.18229167l-9.99479167 6.66666667 10 6.66666663v-4.15624997c2.0833333.05729167 3.25.47395834 4.515625 1.04166667 1.609375.71875 2.8802083 2.2916667 3.9479167 3.9895833l1 1.625h.5364583c0-.5260416-.0052083-1.1927083-.0052083-1.65625zm-.8177084-.3541666c-2.4791666-4.20833337-5.2708333-5.48958337-10.01041663-5.48958337v3.37499997l-7.71354167-5.0364583 7.71354167-5.04166667v3.36979167c10.46875003 0 10.01041663 8.8229167 10.01041663 8.8229167z"
          fill="#3d4349" transform="translate(6 7)"/>
</svg>