<svg height="32" viewBox="0 0 32 32" width="32" xmlns="http://www.w3.org/2000/svg">
    <path d="m15 8c-3.86007 0-7 3.14-7 7 0 3.8601 3.13993 7 7 7 1.7503322 0 3.347588-.651187 4.576172-1.716797l3.566406 3.566406c.1254084.1306198.3116333.1832367.486854.1375582.1752206-.0456785.3120567-.1825146.3577352-.3577352.0456785-.1752207-.0069384-.3614456-.1375582-.486854l-3.566406-3.566406c1.065614-1.228582 1.716797-2.8258262 1.716797-4.576172 0-3.86-3.13993-7-7-7zm0 1c3.31963 0 6 2.6804 6 6 0 3.3197-2.68037 6-6 6s-6-2.6803-6-6c0-3.3196 2.68037-6 6-6zm-2 5.5c-.180318-.0025501-.3480407.0921876-.4389439.2479364-.0909031.1557488-.0909031.3483784 0 .5041272.0909032.1557488.2586259.2504865.4389439.2479364h4c.180318.0025501.3480407-.0921876.4389439-.2479364.0909031-.1557488.0909031-.3483784 0-.5041272-.0909032-.1557488-.2586259-.2504865-.4389439-.2479364z"
          fill="#3d4349"/>
</svg>