<svg xmlns="http://www.w3.org/2000/svg" width="100" height="100" viewBox="0 0 100 100">
    <g fill="none" fill-rule="evenodd">
        <path fill="#E2E6EA" d="M90.309 82.009a2.28 2.28 0 0 1-2.274-2.285 2.28 2.28 0 0 1 2.274-2.285 2.28 2.28 0 0 1 2.273 2.285 2.28 2.28 0 0 1-2.273 2.285m-9.05 0a2.277 2.277 0 0 1-2.272-2.285 2.278 2.278 0 0 1 2.272-2.285 2.28 2.28 0 0 1 2.273 2.285 2.28 2.28 0 0 1-2.273 2.285m-9.051 0a2.276 2.276 0 0 1-2.27-2.285 2.277 2.277 0 0 1 2.27-2.285 2.28 2.28 0 0 1 2.273 2.285 2.28 2.28 0 0 1-2.273 2.285m-9.05 0a2.276 2.276 0 0 1-2.27-2.285 2.277 2.277 0 0 1 2.27-2.285 2.28 2.28 0 0 1 2.273 2.285 2.28 2.28 0 0 1-2.273 2.285m-9.051 0a2.277 2.277 0 0 1-2.27-2.285 2.278 2.278 0 0 1 2.27-2.285 2.28 2.28 0 0 1 2.273 2.285 2.279 2.279 0 0 1-2.273 2.285m-9.05 0a2.277 2.277 0 0 1-2.271-2.285 2.278 2.278 0 0 1 2.271-2.285 2.28 2.28 0 0 1 2.273 2.285 2.28 2.28 0 0 1-2.273 2.285m-9.05 0a2.277 2.277 0 0 1-2.271-2.285 2.278 2.278 0 0 1 2.271-2.285 2.28 2.28 0 0 1 2.273 2.285 2.28 2.28 0 0 1-2.273 2.285m-9.05 0a2.278 2.278 0 0 1-2.272-2.285 2.278 2.278 0 0 1 2.271-2.285 2.28 2.28 0 0 1 2.273 2.285 2.279 2.279 0 0 1-2.273 2.285m-9.05 0a2.277 2.277 0 0 1-2.271-2.285 2.278 2.278 0 0 1 2.271-2.285 2.28 2.28 0 0 1 2.273 2.285 2.28 2.28 0 0 1-2.273 2.285m-9.05 0a2.278 2.278 0 0 1-2.272-2.285 2.278 2.278 0 0 1 2.271-2.285 2.28 2.28 0 0 1 2.273 2.285 2.279 2.279 0 0 1-2.273 2.285m88.452-2.522c0-1.12.808-2.046 1.874-2.237V13.07C99.18 5.882 93.299 0 86.108 0H13.074C5.884 0 0 5.882 0 13.07v64.157a2.272 2.272 0 0 1 2.083 2.26c0 1.19-.918 2.158-2.083 2.258v4.362C0 93.297 5.883 99.18 13.074 99.18h73.034c7.191 0 13.073-5.883 13.073-13.072v-4.384a2.274 2.274 0 0 1-1.874-2.237"/>
        <path fill="#FFF" d="M12.988 15.96H8.054v-3.306h13.44v3.306h-4.935v12.996h-3.57zM23.808 28.958h3.57V12.654h-3.57zM30.116 20.802c0-4.63 3.47-8.432 8.453-8.432 3.059 0 4.776 1.168 6.283 2.658l-2.135 2.47c-1.247-1.144-2.315-1.816-4.173-1.816-2.73 0-4.699 2.281-4.699 5.12 0 2.8 1.922 5.127 4.7 5.127 1.857 0 2.99-.742 4.266-1.91l2.27 2.446c-1.664 1.792-3.522 2.77-6.648 2.77-4.776 0-8.317-3.7-8.317-8.433M47.35 12.654h3.57v7.123l6.582-7.123h4.309l-6.607 6.916 6.904 9.388h-4.285l-5.028-6.94-1.875 1.955v4.985h-3.57zM63.68 12.654h12.233v3.187h-8.687v3.313h7.644v3.187h-7.644v3.423h8.803v3.194H63.68zM82.396 15.96h-4.934v-3.306H90.9v3.306h-4.935v12.996h-3.57zM9.213 32.912h3.57v13.045h8.083v3.26H9.213zM32.285 42.392l-2.153-5.289-2.156 5.29h4.309zm-3.751-9.6h3.288l6.951 16.423h-3.728l-1.482-3.658h-6.858l-1.484 3.658h-3.64l6.953-16.423zM40.69 32.912h3.289l7.602 10.04v-10.04h3.524v16.305h-3.037L44.213 38.85v10.367H40.69zM64.74 45.982c2.919 0 4.89-1.985 4.89-4.92 0-2.887-1.971-4.914-4.89-4.914h-2.754v9.834h2.755zm-6.325-13.07h6.326c5.1 0 8.623 3.517 8.623 8.15 0 4.59-3.523 8.152-8.623 8.152h-6.326V32.912zM15.773 62.415c1.734 0 2.73-.931 2.73-2.352 0-1.537-1.065-2.332-2.799-2.332h-3.548v4.684h3.617zm-7.185-7.918h7.414c2.063 0 3.663.581 4.725 1.65.907.914 1.393 2.19 1.393 3.777 0 2.633-1.413 4.283-3.476 5.054l3.963 5.822h-4.173l-3.523-5.215h-2.755V70.8H8.588V54.497zM24.852 63.812v-9.317h3.564v9.223c0 2.657 1.326 4.03 3.5 4.03 2.18 0 3.5-1.325 3.5-3.915v-9.338h3.57v9.2c0 4.938-2.756 7.36-7.116 7.36-4.356 0-7.018-2.446-7.018-7.243M78.716 47.333a2.28 2.28 0 0 1-2.273 2.285 2.277 2.277 0 0 1-2.27-2.285 2.277 2.277 0 0 1 2.27-2.285 2.28 2.28 0 0 1 2.273 2.285"/>
    </g>
</svg>
