<svg height="24" viewBox="0 0 24 24" width="24" xmlns="http://www.w3.org/2000/svg">
    <g fill="#949da5" fill-rule="nonzero">
        <path d="m2 0h20c1.1045695 0 2 .8954305 2 2v10c0 6.627417-5.372583 12-12 12h-10c-1.1045695 0-2-.8954305-2-2v-20c0-1.1045695.8954305-2 2-2z"
              fill-opacity=".24"/>
        <path d="m20 0h2c1.1045695 0 2 .8954305 2 2v10c0 6.627417-5.372583 12-12 12h-10c-1.1045695 0-2-.8954305-2-2v-2h11c4.9705627 0 9-4.0294373 9-9z"
              fill-opacity=".32"/>
    </g>
</svg>