<svg height="32" viewBox="0 0 32 32" width="32" xmlns="http://www.w3.org/2000/svg">
    <path d="m9.62519555 1.16677475c1.30687815-.55692729 2.70300325-.94496789 4.16096345-1.1367098.1277751.98136831.9669594 1.73925061 1.9831566 1.73925061 1.0265506 0 1.8724631-.7734043 1.9868399-1.76931556 1.4681093.1702925 2.875624.53931676 4.1949419 1.07947057-.4265727.92773661-.0836601 2.04478968.8182182 2.56548934.9132767.52728056 2.0695557.25240778 2.6529997-.60601539 1.172539.87074551 2.2218123 1.8981292 3.116868 3.05119917-.8893896.57445424-1.1807971 1.7520311-.6455121 2.67917187.5429457.94040944 1.7342896 1.27307124 2.6832992.75931442.577021 1.32959452.9787493 2.75289862 1.1760234 4.24075082-1.0970552.0087691-1.9836782.900811-1.9836782 1.9999348 0 1.1045695.8954305 2 2 2 .0048148 0 .0096258-.0000171.0144327-.000051-.1756208 1.5032306-.5596119 2.9428154-1.1223204 4.2891016-.0118027-.0071382-.0237048-.0141726-.0357059-.0211014-.9565852-.5522848-2.179766-.2245345-2.7320508.7320508-.5522847.9565852-.2245344 2.179766.7320508 2.7320508.0143531.0082867.0287663.0163754.0432363.0242668-.8969124 1.1877121-1.955613 2.2464127-3.1433251 3.1433251-.0078914-.01447-.0159801-.0288832-.0242668-.0432363-.5522848-.9565852-1.7754656-1.2843355-2.7320508-.7320508-.9565853.5522848-1.2843356 1.7754656-.7320508 2.7320508.0069288.0120011.0139632.0239032.0211014.0357059-1.3462862.5627085-2.785871.9466996-4.2891016 1.1223204.0000339-.0048069.000051-.0096179.000051-.0144327 0-1.1045695-.8954305-2-2-2-1.0991238 0-1.9911657.886623-1.9999348 1.9836782-1.4878522-.1972741-2.9111563-.5990024-4.24075082-1.1760234.51375682-.9490096.18109502-2.1403535-.75931442-2.6832992-.92714077-.535285-2.10471763-.2438775-2.67917187.6455121-1.15306997-.8950557-2.18045366-1.944329-3.05119917-3.116868.85842317-.583444 1.13329595-1.739723.60601539-2.6529997-.52069966-.9018783-1.63775273-1.2447909-2.56548934-.8182182-.54015381-1.3193179-.90917807-2.7268326-1.07947057-4.1949419.99591126-.1143768 1.76931556-.9602893 1.76931556-1.9868399 0-1.0161972-.7578823-1.8553815-1.73925061-1.9831566.19174191-1.4579602.57978251-2.8540853 1.1367098-4.16096345.90950847.36698458 1.97372006.01787918 2.47818516-.85587999.50198866-.86946988.27693165-1.9591891-.48654031-2.56517824.87380569-1.14673851 1.89897921-2.17191203 3.04571772-3.04571772.60598914.76347196 1.69570836.98852897 2.56517824.48654031.87375917-.5044651 1.22286457-1.56867669.85587999-2.47818516z"
          fill="#3d4349"/>
</svg>